<svg width="21" height="31" viewBox="0 0 21 31" fill="none" xmlns="http://www.w3.org/2000/svg">
<path fill-rule="evenodd" clip-rule="evenodd" d="M16.1905 0C18.7453 0 20.8164 2.03969 20.8164 4.55578V25.5124C20.8164 28.0285 18.7453 30.0682 16.1905 30.0682C13.6357 30.0682 11.5647 28.0285 11.5647 25.5124L11.5647 4.55578C11.5647 2.03969 13.6357 0 16.1905 0ZM4.62587 4.55578C7.18067 4.55578 9.25174 6.59547 9.25174 9.11156V21.8677C9.25174 24.3838 7.18067 26.4235 4.62587 26.4235C2.07107 26.4235 0 24.3838 0 21.8677L4.41157e-07 9.11156C8.82315e-07 6.59547 2.07107 4.55578 4.62587 4.55578Z" fill="#F5F5F5"/>
</svg>
