<svg width="185" height="31" viewBox="0 0 185 31" fill="none" xmlns="http://www.w3.org/2000/svg">
<path d="M42.1266 23.4377C38.3025 23.4377 34.8177 21.8033 34.6943 17.9175L38.9501 17.7633C39.0735 19.1203 40.3996 20.0146 42.2499 20.0146C43.6685 20.0146 44.6862 19.4903 44.6862 18.5652C44.6862 15.8822 35.342 17.6091 35.342 11.6572C35.342 8.5116 38.2717 6.66125 41.8182 6.66125C45.7964 6.66125 48.5103 9.00503 48.5719 11.8114L44.4087 11.9347C44.2545 10.8245 43.3293 9.96104 41.7565 9.96104C40.6154 9.96104 39.5978 10.4545 39.5978 11.3488C39.5978 14.001 49.0962 12.1506 49.0962 18.3493C49.0962 21.6182 46.1665 23.4377 42.1266 23.4377Z" fill="#F5F5F5"/>
<path d="M61.761 6.66125C65.1533 6.66125 68.268 8.78915 68.268 13.7234V23.1294H63.858V14.4019C63.858 11.2871 62.1002 10.4236 60.4041 10.4236C58.307 10.4236 56.7959 11.7497 56.7959 14.5561V23.1294H52.4167V0H56.7959V9.25174C57.8136 7.61727 59.448 6.66125 61.761 6.66125Z" fill="#F5F5F5"/>
<path d="M84.9578 9.46762L85.6979 7.00048H89.3986V23.1294H84.9578V20.3538C84.1868 22.2659 82.0589 23.4377 79.3759 23.4377C74.4725 23.4377 71.5736 19.6137 71.5736 15.0187C71.5736 10.2386 74.6267 6.66125 79.5918 6.66125C81.658 6.66125 83.7551 7.58643 84.9578 9.3751V9.46762ZM80.5169 19.5212C83.0766 19.5212 84.9578 17.64 84.9578 15.0495C84.9578 12.4898 83.0766 10.6395 80.5169 10.6395C77.8648 10.6395 76.0144 12.459 76.0144 15.0495C76.0144 17.6708 77.8648 19.5212 80.5169 19.5212Z" fill="#F5F5F5"/>
<path d="M103.651 6.69209C108.555 6.69209 111.423 10.547 111.423 15.1112C111.423 19.8912 108.4 23.4686 103.404 23.4686C101.369 23.4686 99.2411 22.5434 98.0384 20.7547V30.2224H93.6592V7.00048H97.2674L98.0384 9.71433V9.80685C98.8402 7.89482 100.968 6.69209 103.651 6.69209ZM102.51 19.5212C105.131 19.5212 107.013 17.6708 107.013 15.0803C107.013 12.459 105.131 10.6395 102.51 10.6395C99.9196 10.6395 98.0692 12.4898 98.0692 15.0803C98.0692 17.64 99.9196 19.5212 102.51 19.5212Z" fill="#F5F5F5"/>
<path d="M122.438 6.66125C127.341 6.66125 130.949 9.96104 130.764 16.4373H118.521C118.737 18.411 120.495 19.8296 122.746 19.8296C124.627 19.8296 125.984 18.9352 126.632 17.6708L130.456 18.0717C129.592 21.1248 126.478 23.4377 122.715 23.4377C117.719 23.4377 114.111 20.1071 114.111 15.1112C114.111 10.2694 117.565 6.66125 122.438 6.66125ZM122.438 10.1769C120.279 10.1769 118.644 11.503 118.49 13.3842H126.323C126.2 11.503 124.658 10.1769 122.438 10.1769Z" fill="#F5F5F5"/>
<path d="M152.805 15.6046V7.00048H157.215V23.1294H153.515L152.898 20.7547C151.911 22.4509 150.215 23.4686 147.84 23.4686C144.479 23.4686 141.364 21.3407 141.364 16.4064V7.00048H145.743V15.728C145.743 18.8427 147.501 19.7062 149.197 19.7062C151.294 19.7062 152.805 18.3801 152.805 15.6046Z" fill="#F5F5F5"/>
<path d="M171.5 6.69209C176.403 6.69209 179.271 10.547 179.271 15.1112C179.271 19.8912 176.249 23.4686 171.253 23.4686C169.218 23.4686 167.09 22.5434 165.887 20.7547V30.2224H161.508V7.00048H165.116L165.887 9.71433V9.80685C166.689 7.89482 168.817 6.69209 171.5 6.69209ZM170.359 19.5212C172.98 19.5212 174.861 17.6708 174.861 15.0803C174.861 12.459 172.98 10.6395 170.359 10.6395C167.768 10.6395 165.918 12.4898 165.918 15.0803C165.918 17.64 167.768 19.5212 170.359 19.5212Z" fill="#F5F5F5"/>
<path d="M182.302 0.165283C183.847 0.165283 185 1.28555 185 2.78649C185 4.27656 183.847 5.39682 182.302 5.39682C180.791 5.39682 179.638 4.27656 179.638 2.78649C179.638 1.28555 180.791 0.165283 182.302 0.165283ZM182.302 4.76599C183.444 4.76599 184.315 3.99377 184.315 2.78649C184.315 1.65535 183.444 0.796113 182.302 0.796113C181.182 0.796113 180.312 1.57921 180.312 2.78649C180.312 3.91763 181.182 4.76599 182.302 4.76599ZM183.521 2.21004C183.521 2.84087 183.042 3.04752 182.683 3.10191L183.586 4.15691H182.781L181.933 3.08015V4.15691H181.269V1.3073H182.498C183.129 1.3073 183.521 1.64447 183.521 2.21004ZM182.455 1.91638H181.933V2.6451H182.455C182.705 2.6451 182.857 2.51458 182.857 2.26442C182.857 2.01427 182.705 1.91638 182.455 1.91638Z" fill="#F5F5F5"/>
<path fill-rule="evenodd" clip-rule="evenodd" d="M16.1905 0C18.7453 0 20.8164 2.03969 20.8164 4.55578V25.5124C20.8164 28.0285 18.7453 30.0682 16.1905 30.0682C13.6357 30.0682 11.5647 28.0285 11.5647 25.5124L11.5647 4.55578C11.5647 2.03969 13.6357 0 16.1905 0ZM4.62587 4.55578C7.18067 4.55578 9.25174 6.59547 9.25174 9.11156V21.8677C9.25174 24.3838 7.18067 26.4235 4.62587 26.4235C2.07107 26.4235 0 24.3838 0 21.8677L4.41157e-07 9.11156C8.82315e-07 6.59547 2.07107 4.55578 4.62587 4.55578Z" fill="#F5F5F5"/>
</svg>
