<svg width="32" height="25" viewBox="0 0 32 25" fill="none" xmlns="http://www.w3.org/2000/svg">
<path d="M30.7692 0H1.23077C0.904349 0 0.591298 0.131111 0.360484 0.36449C0.12967 0.597868 0 0.914397 0 1.24444V22.4C0 23.0601 0.25934 23.6932 0.720968 24.1599C1.1826 24.6267 1.8087 24.8889 2.46154 24.8889H29.5385C30.1913 24.8889 30.8174 24.6267 31.279 24.1599C31.7407 23.6932 32 23.0601 32 22.4V1.24444C32 0.914397 31.8703 0.597868 31.6395 0.36449C31.4087 0.131111 31.0957 0 30.7692 0ZM27.6046 2.48889L16 13.2456L4.39538 2.48889H27.6046ZM29.5385 22.4H2.46154V4.074L15.1677 15.8511C15.3948 16.0619 15.6918 16.1788 16 16.1788C16.3082 16.1788 16.6052 16.0619 16.8323 15.8511L29.5385 4.074V22.4Z" fill="#F5F5F5"/>
</svg>
