<svg width="32" height="32" viewBox="0 0 32 32" fill="none" xmlns="http://www.w3.org/2000/svg">
<path fill-rule="evenodd" clip-rule="evenodd" d="M4.81282 32C4.1807 32.0003 3.55473 31.876 2.97067 31.6343C2.38661 31.3925 1.85593 31.038 1.40896 30.591C0.961987 30.1441 0.607489 29.6134 0.365731 29.0293C0.123972 28.4453 -0.000305766 27.8193 5.64925e-07 27.1872V4.81282C-0.000305766 4.1807 0.123972 3.55473 0.365731 2.97067C0.607489 2.38661 0.961987 1.85593 1.40896 1.40896C1.85593 0.961987 2.38661 0.607489 2.97067 0.365731C3.55473 0.123973 4.1807 -0.000305766 4.81282 5.64923e-07H27.1872C27.8193 -0.000305766 28.4453 0.123973 29.0293 0.365731C29.6134 0.607489 30.1441 0.961987 30.591 1.40896C31.038 1.85593 31.3925 2.38661 31.6343 2.97067C31.876 3.55473 32.0003 4.1807 32 4.81282V27.1872C32.0003 27.8193 31.876 28.4453 31.6343 29.0293C31.3925 29.6134 31.038 30.1441 30.591 30.591C30.1441 31.038 29.6134 31.3925 29.0293 31.6343C28.4453 31.876 27.8193 32.0003 27.1872 32H4.81282ZM24.3671 18.4822H20.9876V29.6693H27.2105C27.5368 29.6693 27.8598 29.6051 28.1613 29.4802C28.4627 29.3554 28.7366 29.1724 28.9673 28.9416C29.198 28.7109 29.381 28.4371 29.5059 28.1356C29.6307 27.8342 29.695 27.5111 29.695 27.1848V4.81049C29.695 4.15156 29.4332 3.51962 28.9673 3.05369C28.5014 2.58776 27.8694 2.326 27.2105 2.326H4.83613C4.1772 2.326 3.54526 2.58776 3.07933 3.05369C2.6134 3.51962 2.35164 4.15156 2.35164 4.81049V27.1848C2.35164 27.8438 2.6134 28.4757 3.07933 28.9416C3.54526 29.4076 4.1772 29.6693 4.83613 29.6693H17.2586V18.4822H13.5295V14.7531H17.2586V12.7511C17.2586 8.95208 19.1068 7.29731 22.2462 7.29731C23.7261 7.29731 24.5209 7.40452 24.9031 7.45812H24.9264V11.024H22.7776C21.6938 11.024 21.1811 11.4902 21.0272 12.4224C20.9898 12.6669 20.9719 12.9139 20.9736 13.1613V14.7531H24.8891L24.3578 18.4822H24.3671Z" fill="#F5F5F5"/>
</svg>
