<svg width="32" height="32" viewBox="0 0 32 32" fill="none" xmlns="http://www.w3.org/2000/svg">
<path d="M16 8.61539C14.5395 8.61539 13.1117 9.04849 11.8973 9.85992C10.6829 10.6713 9.73643 11.8247 9.17751 13.174C8.61858 14.5234 8.47234 16.0082 8.75728 17.4407C9.04222 18.8731 9.74553 20.189 10.7783 21.2217C11.811 22.2545 13.1269 22.9578 14.5593 23.2427C15.9918 23.5277 17.4766 23.3814 18.826 22.8225C20.1753 22.2636 21.3287 21.3171 22.1401 20.1027C22.9515 18.8883 23.3846 17.4605 23.3846 16C23.3826 14.0421 22.6039 12.165 21.2195 10.7805C19.835 9.3961 17.9579 8.61742 16 8.61539ZM16 20.9231C15.0263 20.9231 14.0745 20.6343 13.2649 20.0934C12.4553 19.5524 11.8243 18.7836 11.4517 17.884C11.0791 16.9844 10.9816 15.9945 11.1715 15.0396C11.3615 14.0846 11.8304 13.2074 12.5189 12.5189C13.2074 11.8304 14.0846 11.3615 15.0396 11.1715C15.9945 10.9816 16.9844 11.0791 17.884 11.4517C18.7836 11.8243 19.5524 12.4553 20.0934 13.2649C20.6343 14.0745 20.9231 15.0263 20.9231 16C20.9231 17.3057 20.4044 18.5579 19.4811 19.4811C18.5579 20.4044 17.3057 20.9231 16 20.9231ZM23.3846 0H8.61539C6.33119 0.00244342 4.14126 0.910918 2.52609 2.52609C0.910918 4.14126 0.00244342 6.33119 0 8.61539V23.3846C0.00244342 25.6688 0.910918 27.8587 2.52609 29.4739C4.14126 31.0891 6.33119 31.9976 8.61539 32H23.3846C25.6688 31.9976 27.8587 31.0891 29.4739 29.4739C31.0891 27.8587 31.9976 25.6688 32 23.3846V8.61539C31.9976 6.33119 31.0891 4.14126 29.4739 2.52609C27.8587 0.910918 25.6688 0.00244342 23.3846 0ZM29.5385 23.3846C29.5385 25.0167 28.8901 26.582 27.736 27.736C26.582 28.8901 25.0167 29.5385 23.3846 29.5385H8.61539C6.98328 29.5385 5.41803 28.8901 4.26396 27.736C3.10989 26.582 2.46154 25.0167 2.46154 23.3846V8.61539C2.46154 6.98328 3.10989 5.41803 4.26396 4.26396C5.41803 3.10989 6.98328 2.46154 8.61539 2.46154H23.3846C25.0167 2.46154 26.582 3.10989 27.736 4.26396C28.8901 5.41803 29.5385 6.98328 29.5385 8.61539V23.3846ZM25.8462 8C25.8462 8.36514 25.7379 8.72207 25.535 9.02567C25.3322 9.32927 25.0438 9.56589 24.7065 9.70562C24.3692 9.84536 23.998 9.88192 23.6398 9.81068C23.2817 9.73945 22.9528 9.56362 22.6946 9.30543C22.4364 9.04724 22.2606 8.71829 22.1893 8.36017C22.1181 8.00205 22.1546 7.63085 22.2944 7.29351C22.4341 6.95617 22.6707 6.66784 22.9743 6.46498C23.2779 6.26212 23.6349 6.15385 24 6.15385C24.4896 6.15385 24.9592 6.34835 25.3054 6.69457C25.6516 7.04079 25.8462 7.51037 25.8462 8Z" fill="#F5F5F5"/>
</svg>
