<svg width="32" height="32" viewBox="0 0 32 32" fill="none" xmlns="http://www.w3.org/2000/svg">
<path d="M32 16C32 12.8355 31.0616 9.74207 29.3035 7.11088C27.5454 4.4797 25.0466 2.42894 22.1229 1.21793C19.1993 0.00693199 15.9823 -0.309921 12.8786 0.307442C9.77486 0.924805 6.92394 2.44866 4.6863 4.6863C2.44866 6.92394 0.924808 9.77486 0.307443 12.8786C-0.309918 15.9823 0.00693428 19.1993 1.21793 22.1229C2.42894 25.0466 4.4797 27.5454 7.11088 29.3035C9.74207 31.0616 12.8355 32 16 32C20.2421 31.9955 24.3092 30.3084 27.3088 27.3088C30.3084 24.3092 31.9955 20.2421 32 16ZM2.46155 16C2.46155 13.3223 3.25556 10.7048 4.74319 8.47844C6.23081 6.25205 8.34523 4.51679 10.8191 3.4921C13.2929 2.4674 16.015 2.1993 18.6412 2.72168C21.2674 3.24407 23.6798 4.53348 25.5731 6.42687C27.4665 8.32026 28.7559 10.7326 29.2783 13.3588C29.8007 15.985 29.5326 18.7071 28.5079 21.1809C27.4832 23.6548 25.748 25.7692 23.5216 27.2568C21.2952 28.7444 18.6777 29.5385 16 29.5385C12.4106 29.5344 8.96944 28.1067 6.43136 25.5686C3.89329 23.0306 2.46562 19.5894 2.46155 16ZM18.1015 21.7938C17.9872 21.9082 17.8514 21.9989 17.702 22.0608C17.5526 22.1227 17.3925 22.1545 17.2308 22.1545C17.0691 22.1545 16.9089 22.1227 16.7595 22.0608C16.6101 21.9989 16.4744 21.9082 16.36 21.7938C16.2457 21.6795 16.1549 21.5437 16.0931 21.3943C16.0312 21.2449 15.9993 21.0848 15.9993 20.9231C15.9993 20.7614 16.0312 20.6012 16.0931 20.4518C16.1549 20.3024 16.2457 20.1667 16.36 20.0523L19.1831 17.2308L9.84616 17.2308C9.51974 17.2308 9.20669 17.1011 8.97587 16.8703C8.74506 16.6395 8.61539 16.3264 8.61539 16C8.61539 15.6736 8.74506 15.3605 8.97587 15.1297C9.20669 14.8989 9.51974 14.7692 9.84616 14.7692L19.1831 14.7692L16.36 11.9477C16.1291 11.7168 15.9993 11.4035 15.9993 11.0769C15.9993 10.7503 16.1291 10.4371 16.36 10.2062C16.5909 9.97522 16.9042 9.84547 17.2308 9.84547C17.5574 9.84547 17.8706 9.97522 18.1015 10.2062L23.0246 15.1292C23.139 15.2435 23.2298 15.3793 23.2918 15.5287C23.3537 15.6781 23.3856 15.8383 23.3856 16C23.3856 16.1617 23.3537 16.3219 23.2918 16.4713C23.2298 16.6207 23.139 16.7565 23.0246 16.8708L18.1015 21.7938Z" fill="white"/>
</svg>
