<svg width="32" height="32" viewBox="0 0 32 32" fill="none" xmlns="http://www.w3.org/2000/svg">
<path d="M-6.99382e-07 16C-5.61058e-07 19.1645 0.938383 22.2579 2.69649 24.8891C4.45459 27.5203 6.95344 29.5711 9.87706 30.7821C12.8007 31.9931 16.0177 32.3099 19.1214 31.6926C22.2251 31.0752 25.0761 29.5513 27.3137 27.3137C29.5513 25.0761 31.0752 22.2251 31.6926 19.1214C32.3099 16.0177 31.9931 12.8007 30.7821 9.87706C29.5711 6.95345 27.5203 4.45459 24.8891 2.69649C22.2579 0.938384 19.1645 1.06964e-06 16 1.20797e-06C11.7579 0.00447985 7.69085 1.69163 4.69124 4.69124C1.69163 7.69085 0.00447884 11.7579 -6.99382e-07 16ZM29.5385 16C29.5385 18.6777 28.7444 21.2952 27.2568 23.5216C25.7692 25.7479 23.6548 27.4832 21.1809 28.5079C18.7071 29.5326 15.985 29.8007 13.3588 29.2783C10.7326 28.7559 8.32025 27.4665 6.42686 25.5731C4.53347 23.6797 3.24406 21.2674 2.72167 18.6412C2.19929 16.015 2.4674 13.2929 3.49209 10.8191C4.51678 8.34522 6.25204 6.2308 8.47843 4.74318C10.7048 3.25556 13.3223 2.46154 16 2.46154C19.5894 2.46561 23.0306 3.89329 25.5686 6.43136C28.1067 8.96943 29.5344 12.4106 29.5385 16ZM13.8985 10.2062C14.0128 10.0918 14.1486 10.0011 14.298 9.93921C14.4474 9.87732 14.6075 9.84547 14.7692 9.84547C14.9309 9.84547 15.0911 9.87732 15.2405 9.93921C15.3899 10.0011 15.5256 10.0918 15.64 10.2062C15.7543 10.3205 15.8451 10.4563 15.9069 10.6057C15.9688 10.7551 16.0007 10.9152 16.0007 11.0769C16.0007 11.2386 15.9688 11.3988 15.9069 11.5482C15.8451 11.6976 15.7543 11.8333 15.64 11.9477L12.8169 14.7692L22.1538 14.7692C22.4803 14.7692 22.7933 14.8989 23.0241 15.1297C23.2549 15.3605 23.3846 15.6736 23.3846 16C23.3846 16.3264 23.2549 16.6395 23.0241 16.8703C22.7933 17.1011 22.4803 17.2308 22.1538 17.2308L12.8169 17.2308L15.64 20.0523C15.8709 20.2832 16.0007 20.5965 16.0007 20.9231C16.0007 21.2497 15.8709 21.5629 15.64 21.7938C15.4091 22.0248 15.0958 22.1545 14.7692 22.1545C14.4426 22.1545 14.1294 22.0248 13.8985 21.7938L8.97538 16.8708C8.86095 16.7565 8.77017 16.6207 8.70823 16.4713C8.64629 16.3219 8.61441 16.1617 8.61441 16C8.61441 15.8383 8.64629 15.6781 8.70823 15.5287C8.77017 15.3793 8.86095 15.2435 8.97538 15.1292L13.8985 10.2062Z" fill="white"/>
</svg>
