<svg width="413" height="234" viewBox="0 0 413 234" fill="none" xmlns="http://www.w3.org/2000/svg">
<g clip-path="url(#clip0_266_54)">
<rect width="413" height="331" rx="40" fill="#A793F7"/>
<path fill-rule="evenodd" clip-rule="evenodd" d="M-301 123.111C-301 194.417 -244.154 252.222 -174.03 252.222L181.485 252.222C251.608 252.222 308.454 194.417 308.454 123.111C308.454 51.805 251.608 -5.99998 181.485 -5.99998L-174.03 -5.99998C-244.154 -5.99997 -301 51.805 -301 123.111Z" fill="#4F45EA"/>
<path fill-rule="evenodd" clip-rule="evenodd" d="M308 123.111C308 194.417 364.846 252.222 434.97 252.222L790.485 252.222C860.608 252.222 917.454 194.417 917.454 123.111C917.454 51.805 860.608 -5.99998 790.485 -5.99998L434.97 -5.99998C364.846 -5.99997 308 51.805 308 123.111Z" fill="#4F45EA"/>
</g>
<defs>
<clipPath id="clip0_266_54">
<rect width="413" height="234" rx="40" fill="white"/>
</clipPath>
</defs>
</svg>
