<svg width="413" height="234" viewBox="0 0 413 234" fill="none" xmlns="http://www.w3.org/2000/svg">
<g clip-path="url(#clip0_266_37)">
<rect width="413" height="331" rx="40" fill="#A793F7"/>
<path fill-rule="evenodd" clip-rule="evenodd" d="M139.444 0C235.297 0 313 76.383 313 170.606V955.394C313 1049.62 235.297 1126 139.444 1126C43.5924 1126 -34.1111 1049.62 -34.1111 955.394L-34.1111 170.606C-34.1111 76.3829 43.5924 0 139.444 0ZM-294.444 170.606C-198.592 170.606 -120.889 246.989 -120.889 341.212V818.909C-120.889 913.132 -198.592 989.515 -294.444 989.515C-390.297 989.515 -468 913.132 -468 818.909L-468 341.212C-468 246.989 -390.296 170.606 -294.444 170.606Z" fill="#4F45EA"/>
</g>
<defs>
<clipPath id="clip0_266_37">
<rect width="413" height="234" rx="40" fill="white"/>
</clipPath>
</defs>
</svg>
