<svg width="413" height="234" viewBox="0 0 413 234" fill="none" xmlns="http://www.w3.org/2000/svg">
<g clip-path="url(#clip0_266_46)">
<rect width="413" height="331" rx="40" fill="#4F45EA"/>
<path fill-rule="evenodd" clip-rule="evenodd" d="M119.111 -51C47.805 -51 -10.0001 5.84628 -10 75.9697V660.03C-10 730.154 47.805 787 119.111 787C190.417 787 248.222 730.154 248.222 660.03L248.222 75.9697C248.222 5.84627 190.417 -51 119.111 -51ZM441.889 75.9697C370.583 75.9697 312.778 132.816 312.778 202.939V558.454C312.778 628.578 370.583 685.424 441.889 685.424C513.195 685.424 571 628.578 571 558.454L571 202.939C571 132.816 513.195 75.9697 441.889 75.9697Z" fill="#A793F7"/>
</g>
<defs>
<clipPath id="clip0_266_46">
<rect width="413" height="234" rx="40" fill="white"/>
</clipPath>
</defs>
</svg>
