<svg width="36" height="36" viewBox="0 0 36 36" fill="none" xmlns="http://www.w3.org/2000/svg">
<path d="M33.0588 5.76471H2.94118C2.69156 5.76471 2.45217 5.86387 2.27566 6.04037C2.09916 6.21688 2 6.45627 2 6.70589V28.0392C2 28.6217 2.23137 29.1802 2.64322 29.5921C3.05506 30.0039 3.61364 30.2353 4.19608 30.2353H31.8039C32.3864 30.2353 32.9449 30.0039 33.3568 29.5921C33.7686 29.1802 34 28.6217 34 28.0392V6.70589C34 6.45627 33.9008 6.21688 33.7243 6.04037C33.5478 5.86387 33.3084 5.76471 33.0588 5.76471ZM18 19.2329L5.36 7.64706H30.64L18 19.2329ZM13.8698 18L3.88235 27.1545V8.84549L13.8698 18ZM15.2627 19.2769L17.3725 21.2031C17.5461 21.3619 17.7727 21.4499 18.0078 21.4499C18.243 21.4499 18.4696 21.3619 18.6431 21.2031L20.7451 19.2769L30.64 28.3529H5.36157L15.2627 19.2769ZM22.1302 18L32.1176 8.84549V27.1545L22.1302 18Z" fill="#080419"/>
</svg>
