<svg width="36" height="36" viewBox="0 0 36 36" fill="none" xmlns="http://www.w3.org/2000/svg">
<path d="M18.2498 9.35711C17.1196 9.35711 16.0148 9.69225 15.0751 10.3201C14.1353 10.948 13.4029 11.8405 12.9704 12.8847C12.5379 13.9288 12.4247 15.0778 12.6452 16.1863C12.8657 17.2947 13.41 18.3129 14.2091 19.1121C15.0083 19.9113 16.0265 20.4555 17.135 20.676C18.2434 20.8965 19.3924 20.7833 20.4366 20.3508C21.4807 19.9183 22.3732 19.1859 23.0011 18.2462C23.629 17.3064 23.9641 16.2016 23.9641 15.0714C23.9641 13.5559 23.3621 12.1024 22.2904 11.0308C21.2188 9.95915 19.7653 9.35711 18.2498 9.35711ZM18.2498 18.5001C17.5717 18.5001 16.9088 18.299 16.3449 17.9222C15.7811 17.5455 15.3417 17.01 15.0822 16.3835C14.8227 15.757 14.7548 15.0676 14.8871 14.4026C15.0193 13.7375 15.3459 13.1266 15.8254 12.6471C16.3049 12.1676 16.9158 11.841 17.5809 11.7087C18.246 11.5764 18.9354 11.6443 19.5618 11.9038C20.1883 12.1633 20.7238 12.6028 21.1006 13.1666C21.4773 13.7304 21.6784 14.3933 21.6784 15.0714C21.6784 15.9808 21.3172 16.8529 20.6742 17.4958C20.0312 18.1388 19.1591 18.5001 18.2498 18.5001ZM18.2498 2.49989C14.9168 2.50367 11.7213 3.82939 9.36452 6.18619C7.00772 8.543 5.682 11.7384 5.67822 15.0714C5.67822 19.5572 7.7511 24.3115 11.6783 28.8216C13.4429 30.8596 15.429 32.6947 17.5998 34.2931C17.7919 34.4277 18.0209 34.4999 18.2555 34.4999C18.4901 34.4999 18.719 34.4277 18.9112 34.2931C21.078 32.694 23.0602 30.8589 24.8213 28.8216C28.7427 24.3115 30.8213 19.5572 30.8213 15.0714C30.8175 11.7384 29.4918 8.543 27.135 6.18619C24.7782 3.82939 21.5828 2.50367 18.2498 2.49989ZM18.2498 31.9288C15.8883 30.0716 7.96396 23.2501 7.96396 15.0714C7.96396 12.3435 9.04764 9.72724 10.9766 7.79828C12.9056 5.86931 15.5218 4.78563 18.2498 4.78563C20.9777 4.78563 23.594 5.86931 25.5229 7.79828C27.4519 9.72724 28.5356 12.3435 28.5356 15.0714C28.5356 23.2472 20.6112 30.0716 18.2498 31.9288Z" fill="#080419"/>
</svg>
