<svg width="20" height="21" viewBox="0 0 20 21" fill="none" xmlns="http://www.w3.org/2000/svg">
<path d="M5.919 15.04C6.00308 15.1032 6.09879 15.1492 6.20066 15.1753C6.30253 15.2015 6.40856 15.2073 6.51268 15.1925C6.6168 15.1776 6.71697 15.1423 6.80745 15.0887C6.89793 15.0351 6.97696 14.9642 7.04 14.88C7.52436 14.2342 8.15244 13.71 8.87449 13.349C9.59654 12.988 10.3927 12.8 11.2 12.8C12.0073 12.8 12.8035 12.988 13.5255 13.349C14.2476 13.71 14.8756 14.2342 15.36 14.88C15.423 14.964 15.502 15.0349 15.5924 15.0884C15.6828 15.1419 15.7829 15.1771 15.8869 15.192C15.9909 15.2068 16.0968 15.201 16.1985 15.175C16.3003 15.1489 16.396 15.103 16.48 15.04C16.564 14.977 16.6349 14.898 16.6884 14.8076C16.7419 14.7172 16.7771 14.6171 16.792 14.5131C16.8068 14.4091 16.801 14.3032 16.775 14.2015C16.7489 14.0997 16.703 14.004 16.64 13.92C15.9316 12.9703 14.987 12.2225 13.9 11.751C14.4957 11.2071 14.913 10.4959 15.0973 9.7106C15.2815 8.9253 15.224 8.10266 14.9323 7.35062C14.6407 6.59858 14.1285 5.9523 13.4629 5.49657C12.7974 5.04085 12.0096 4.79699 11.203 4.79699C10.3964 4.79699 9.60861 5.04085 8.94307 5.49657C8.27753 5.9523 7.76532 6.59858 7.47365 7.35062C7.18199 8.10266 7.1245 8.9253 7.30873 9.7106C7.49297 10.4959 7.91031 11.2071 8.506 11.751C7.41684 12.2216 6.47004 12.9694 5.76 13.92C5.63259 14.0896 5.57776 14.3029 5.60758 14.5129C5.6374 14.723 5.74942 14.9125 5.919 15.04ZM8.8 8.8C8.8 8.32532 8.94076 7.86131 9.20447 7.46663C9.46819 7.07195 9.84302 6.76434 10.2816 6.58269C10.7201 6.40104 11.2027 6.35351 11.6682 6.44611C12.1338 6.53872 12.5614 6.7673 12.8971 7.10294C13.2327 7.43859 13.4613 7.86623 13.5539 8.33178C13.6465 8.79734 13.599 9.2799 13.4173 9.71844C13.2357 10.157 12.928 10.5318 12.5334 10.7955C12.1387 11.0592 11.6747 11.2 11.2 11.2C10.5635 11.2 9.95303 10.9471 9.50294 10.4971C9.05286 10.047 8.8 9.43652 8.8 8.8ZM18.4 0H4C3.57565 0 3.16869 0.168571 2.86863 0.468629C2.56857 0.768687 2.4 1.17565 2.4 1.6V4H0.8C0.587827 4 0.384344 4.08429 0.234315 4.23431C0.0842854 4.38434 0 4.58783 0 4.8C0 5.01217 0.0842854 5.21566 0.234315 5.36568C0.384344 5.51571 0.587827 5.6 0.8 5.6H2.4V9.6H0.8C0.587827 9.6 0.384344 9.68429 0.234315 9.83431C0.0842854 9.98434 0 10.1878 0 10.4C0 10.6122 0.0842854 10.8157 0.234315 10.9657C0.384344 11.1157 0.587827 11.2 0.8 11.2H2.4V15.2H0.8C0.587827 15.2 0.384344 15.2843 0.234315 15.4343C0.0842854 15.5843 0 15.7878 0 16C0 16.2122 0.0842854 16.4157 0.234315 16.5657C0.384344 16.7157 0.587827 16.8 0.8 16.8H2.4V19.2C2.4 19.6243 2.56857 20.0313 2.86863 20.3314C3.16869 20.6314 3.57565 20.8 4 20.8H18.4C18.8243 20.8 19.2313 20.6314 19.5314 20.3314C19.8314 20.0313 20 19.6243 20 19.2V1.6C20 1.17565 19.8314 0.768687 19.5314 0.468629C19.2313 0.168571 18.8243 0 18.4 0ZM18.4 19.2H4V1.6H18.4V19.2Z" fill="#F5F5F5" fill-opacity="0.7"/>
</svg>
