<svg width="36" height="36" viewBox="0 0 36 36" fill="none" xmlns="http://www.w3.org/2000/svg">
<path d="M29.6714 22.6823L23.7826 20.0435L23.7664 20.036C23.4607 19.9053 23.1272 19.8528 22.7961 19.8834C22.465 19.9139 22.1467 20.0265 21.8701 20.211C21.8376 20.2326 21.8063 20.2559 21.7764 20.281L18.7339 22.8748C16.8063 21.9386 14.8163 19.9635 13.8801 18.061L16.4776 14.9723C16.5026 14.941 16.5263 14.9098 16.5488 14.876C16.7294 14.6001 16.8389 14.2839 16.8677 13.9555C16.8965 13.627 16.8436 13.2966 16.7138 12.9935V12.9785L14.0676 7.0797C13.896 6.68378 13.601 6.35397 13.2265 6.13949C12.8521 5.92502 12.4184 5.83739 11.9901 5.88969C10.2963 6.11258 8.74151 6.94441 7.61619 8.22983C6.49087 9.51525 5.87195 11.1663 5.87501 12.8747C5.87501 22.7998 13.9501 30.8749 23.8751 30.8749C25.5835 30.8779 27.2346 30.259 28.5201 29.1337C29.8055 28.0084 30.6373 26.4536 30.8602 24.7598C30.9126 24.3317 30.8251 23.898 30.6109 23.5236C30.3967 23.1492 30.0671 22.8541 29.6714 22.6823ZM23.8751 28.8749C19.6331 28.8702 15.5661 27.183 12.5665 24.1834C9.56687 21.1838 7.87966 17.1168 7.87503 12.8747C7.87032 11.6541 8.31009 10.4735 9.11221 9.55335C9.91432 8.63324 11.0239 8.03654 12.2338 7.87471C12.2333 7.8797 12.2333 7.88472 12.2338 7.88971L14.8588 13.7648L12.2751 16.8573C12.2488 16.8874 12.225 16.9196 12.2038 16.9535C12.0157 17.2422 11.9053 17.5745 11.8834 17.9184C11.8615 18.2622 11.9288 18.6059 12.0788 18.916C13.2113 21.2323 15.5451 23.5486 17.8863 24.6798C18.1988 24.8284 18.5445 24.8934 18.8895 24.8684C19.2346 24.8434 19.5673 24.7293 19.8551 24.5373C19.8872 24.5157 19.9181 24.4923 19.9476 24.4673L22.9864 21.8748L28.8614 24.5061C28.8614 24.5061 28.8714 24.5061 28.8752 24.5061C28.7153 25.7177 28.1195 26.8295 27.1992 27.6336C26.2789 28.4377 25.0972 28.879 23.8751 28.8749Z" fill="#080419"/>
</svg>
