<svg width="104" height="74" viewBox="0 0 104 74" fill="none" xmlns="http://www.w3.org/2000/svg">
<path fill-rule="evenodd" clip-rule="evenodd" d="M104 57.5278C104 66.4871 96.9451 73.75 88.2424 73.75L15.7576 73.75C7.05491 73.75 -2.87346e-06 66.4871 -2.48184e-06 57.5278C-2.09021e-06 48.5685 7.05491 41.3056 15.7576 41.3056L88.2424 41.3056C96.9451 41.3056 104 48.5685 104 57.5278ZM88.2424 16.9722C88.2424 25.9315 81.1875 33.1944 72.4848 33.1944L28.3636 33.1944C19.661 33.1944 12.6061 25.9315 12.6061 16.9722C12.6061 8.01293 19.661 0.749996 28.3636 0.749997L72.4848 0.75C81.1875 0.750002 88.2424 8.01294 88.2424 16.9722Z" fill="#A793F7"/>
</svg>
